<?xml version="1.0" encoding="utf-8"?>
<!-- Generator: Adobe Illustrator 19.0.0, SVG Export Plug-In . SVG Version: 6.00 Build 0)  -->
<svg version="1.1" xmlns="http://www.w3.org/2000/svg" xmlns:xlink="http://www.w3.org/1999/xlink" x="0px" y="0px"
	 viewBox="0 0 256 256" style="enable-background:new 0 0 256 256;" xml:space="preserve">
<style type="text/css">
	.st0{opacity:0.75;}
	.st1{fill:none;stroke:#000000;stroke-width:2;stroke-miterlimit:10;}
	.st2{fill:url(#XMLID_4_);}
	.st3{fill:url(#XMLID_6_);}
	.st4{stroke:#000000;stroke-width:1.5;stroke-miterlimit:10;}
	.st5{stroke:#000000;stroke-miterlimit:10;}
	.st6{fill-rule:evenodd;clip-rule:evenodd;}
	.st7{fill:#6B6B6B;stroke:#000000;stroke-width:1.5;stroke-miterlimit:10;}
	.st8{fill:#6B6B6B;stroke:#222222;stroke-width:1.5;stroke-miterlimit:10;}
	.st9{stroke:#6B6B6B;stroke-miterlimit:10;}
	.st10{fill:#222222;stroke:#6B6B6B;stroke-miterlimit:10;}
	.st11{fill:none;}
	.st12{fill-rule:evenodd;clip-rule:evenodd;fill:#414141;}
	.st13{stroke:#000000;stroke-width:2;stroke-miterlimit:10;}
	.st14{fill:#474747;stroke:#000000;stroke-width:2;stroke-miterlimit:10;}
	.st15{clip-path:url(#XMLID_7_);}
	.st16{fill:none;stroke:#000000;stroke-miterlimit:10;}
</style>
<g id="Layer_1">
	<g id="XMLID_5_">
		<g id="XMLID_206_" class="st0">
			<path id="XMLID_207_" d="M183.3,245c-0.2,0.1-2.4-2.8-6.2-8.3c-3.8-5.5-9.1-13.5-15.7-23.4s-14.3-21.8-22.9-35
				c-4.3-6.6-8.7-13.5-13.4-20.7c-0.6-0.9-1.2-1.8-1.7-2.7c-0.6-0.8-1.1-1.6-1.8-2.4l-1-1.1c-0.3-0.4-0.7-0.7-1.1-1l-1.2-0.9
				c-0.2-0.2-0.4-0.3-0.6-0.5l-0.6-0.4c-3.4-2.2-7.5-3.4-11.6-3.4c-4.2,0-8.2,1.3-11.6,3.4l-0.6,0.4c-0.2,0.1-0.4,0.3-0.6,0.5
				l-1.2,0.9c-0.4,0.3-0.7,0.7-1.1,1l-1,1.1c-0.7,0.7-1.2,1.6-1.8,2.4c-0.6,0.9-1.2,1.8-1.7,2.7c-4.6,7.2-9.1,14.1-13.4,20.7
				c-8.6,13.2-16.3,25-22.9,35s-11.9,17.9-15.7,23.4c-3.8,5.5-6,8.4-6.2,8.3s1.5-3.4,4.9-9.1c3.4-5.7,8.4-14,14.6-24.1
				s13.8-22.1,22.1-35.4c4.2-6.6,8.6-13.6,13.2-20.8c0.6-0.9,1.1-1.8,1.8-2.7c0.7-0.9,1.3-1.9,2.1-2.8l1.2-1.3
				c0.4-0.4,0.8-0.9,1.3-1.2l1.4-1.1c0.2-0.2,0.5-0.4,0.7-0.6l0.8-0.5c4-2.6,8.9-4,13.8-4.1c4.9,0,9.8,1.5,13.8,4.1l0.8,0.5
				c0.2,0.2,0.5,0.4,0.7,0.6l1.4,1.1c0.5,0.4,0.9,0.8,1.3,1.2l1.2,1.3c0.8,0.9,1.4,1.9,2.1,2.8c0.6,0.9,1.2,1.8,1.8,2.7
				c4.6,7.2,9,14.2,13.2,20.8c8.4,13.3,15.9,25.3,22.1,35.4s11.3,18.3,14.6,24.1C181.7,241.7,183.5,244.9,183.3,245z"/>
		</g>
		<g id="XMLID_197_">
			<g id="XMLID_198_">
				<g id="XMLID_202_">
					<g id="XMLID_203_">
						<path id="XMLID_204_" d="M182.8,244.5c-0.2,0.1-2.4-2.8-6.2-8.3c-3.8-5.5-9.1-13.5-15.7-23.4s-14.3-21.8-22.9-35
							c-4.3-6.6-8.7-13.5-13.4-20.7c-0.6-0.9-1.2-1.8-1.7-2.7c-0.6-0.8-1.1-1.6-1.8-2.4l-1-1.1c-0.3-0.4-0.7-0.7-1.1-1l-1.2-0.9
							c-0.2-0.2-0.4-0.3-0.6-0.5l-0.6-0.4c-3.4-2.2-7.5-3.4-11.6-3.4c-4.2,0-8.2,1.3-11.6,3.4l-0.6,0.4c-0.2,0.1-0.4,0.3-0.6,0.5
							l-1.2,0.9c-0.4,0.3-0.7,0.7-1.1,1l-1,1.1c-0.7,0.7-1.2,1.6-1.8,2.4c-0.6,0.9-1.2,1.8-1.7,2.7c-4.6,7.2-9.1,14.1-13.4,20.7
							c-8.6,13.2-16.3,25-22.9,35S37,230.8,33.2,236.3c-3.8,5.5-6,8.4-6.2,8.3s1.5-3.4,4.9-9.1c3.4-5.7,8.4-14,14.6-24.1
							s13.8-22.1,22.1-35.4c4.2-6.6,8.6-13.6,13.2-20.8c0.6-0.9,1.1-1.8,1.8-2.7c0.7-0.9,1.3-1.9,2.1-2.8l1.2-1.3
							c0.4-0.4,0.8-0.9,1.3-1.2l1.4-1.1c0.2-0.2,0.5-0.4,0.7-0.6l0.8-0.5c4-2.6,8.9-4,13.8-4.1c4.9,0,9.8,1.5,13.8,4.1l0.8,0.5
							c0.2,0.2,0.5,0.4,0.7,0.6l1.4,1.1c0.5,0.4,0.9,0.8,1.3,1.2l1.2,1.3c0.8,0.9,1.4,1.9,2.1,2.8c0.6,0.9,1.2,1.8,1.8,2.7
							c4.6,7.2,9,14.2,13.2,20.8c8.4,13.3,15.9,25.3,22.1,35.4s11.3,18.3,14.6,24.1C181.2,241.2,183,244.4,182.8,244.5z"/>
					</g>
				</g>
			</g>
		</g>
	</g>
	<g id="XMLID_2_">
		<g id="XMLID_91_" class="st0">
			<path id="XMLID_93_" d="M182.7,82.2c0,0,49.9-19.9,49.9-8.1v47.7c0,10-49.9-7.8-49.9-7.8V82.2z"/>
			<path id="XMLID_92_" class="st1" d="M182.7,82.2c0,0,49.9-19.9,49.9-8.1v47.7c0,10-49.9-7.8-49.9-7.8V82.2z"/>
		</g>
		<g id="XMLID_88_">
			<linearGradient id="XMLID_4_" gradientUnits="userSpaceOnUse" x1="190.3342" y1="74.4575" x2="233.0842" y2="118.4575">
				<stop  offset="0" style="stop-color:#161616"/>
				<stop  offset="1" style="stop-color:#000000"/>
			</linearGradient>
			<path id="XMLID_90_" class="st2" d="M182.7,81.2c0,0,49.9-19.9,49.9-8.1v47.7c0,10-49.9-7.8-49.9-7.8V81.2z"/>
			<path id="XMLID_89_" class="st1" d="M182.7,81.2c0,0,49.9-19.9,49.9-8.1v47.7c0,10-49.9-7.8-49.9-7.8V81.2z"/>
		</g>
	</g>
	<g id="XMLID_10_">
		<g id="XMLID_58_" class="st0">
			<path id="XMLID_62_" d="M176.3,41.9H138v0c0-16.3-13.2-29.6-29.6-29.6H94.2c-16.3,0-29.6,13.2-29.6,29.6v0H35.4
				c-4.1,0-7.4,3.3-7.4,7.4v88.4c0,4.1,3.3,7.4,7.4,7.4h140.9c4.1,0,7.4-3.3,7.4-7.4V49.3C183.7,45.2,180.4,41.9,176.3,41.9z
				 M72.1,41.9L72.1,41.9c0-13,10.5-23.5,23.5-23.5h11.3c13,0,23.5,10.5,23.5,23.5v0H72.1z"/>
			<path id="XMLID_59_" class="st1" d="M176.3,41.9H138v0c0-16.3-13.2-29.6-29.6-29.6H94.2c-16.3,0-29.6,13.2-29.6,29.6v0H35.4
				c-4.1,0-7.4,3.3-7.4,7.4v88.4c0,4.1,3.3,7.4,7.4,7.4h140.9c4.1,0,7.4-3.3,7.4-7.4V49.3C183.7,45.2,180.4,41.9,176.3,41.9z
				 M72.1,41.9L72.1,41.9c0-13,10.5-23.5,23.5-23.5h11.3c13,0,23.5,10.5,23.5,23.5v0H72.1z"/>
		</g>
		<g id="XMLID_51_">
			<linearGradient id="XMLID_6_" gradientUnits="userSpaceOnUse" x1="71.1163" y1="66.2176" x2="167.6163" y2="141.4676">
				<stop  offset="0" style="stop-color:#161616"/>
				<stop  offset="1" style="stop-color:#000000"/>
			</linearGradient>
			<path id="XMLID_55_" class="st3" d="M175.3,40.9H137v0c0-16.3-13.2-29.6-29.6-29.6H93.2c-16.3,0-29.6,13.2-29.6,29.6v0H34.4
				c-4.1,0-7.4,3.3-7.4,7.4v88.4c0,4.1,3.3,7.4,7.4,7.4h140.9c4.1,0,7.4-3.3,7.4-7.4V48.3C182.7,44.2,179.4,40.9,175.3,40.9z
				 M71.1,40.9L71.1,40.9c0-13,10.5-23.5,23.5-23.5h11.3c13,0,23.5,10.5,23.5,23.5v0H71.1z"/>
			<path id="XMLID_52_" class="st1" d="M175.3,40.9H137v0c0-16.3-13.2-29.6-29.6-29.6H93.2c-16.3,0-29.6,13.2-29.6,29.6v0H34.4
				c-4.1,0-7.4,3.3-7.4,7.4v88.4c0,4.1,3.3,7.4,7.4,7.4h140.9c4.1,0,7.4-3.3,7.4-7.4V48.3C182.7,44.2,179.4,40.9,175.3,40.9z
				 M71.1,40.9L71.1,40.9c0-13,10.5-23.5,23.5-23.5h11.3c13,0,23.5,10.5,23.5,23.5v0H71.1z"/>
		</g>
	</g>
</g>
<g id="Layer_2">
	<g id="XMLID_1514_" class="st0">
		<circle id="XMLID_1602_" class="st4" cx="138" cy="126.7" r="6.3"/>
		<circle id="XMLID_1601_" class="st4" cx="138" cy="126.7" r="4.4"/>
		<line id="XMLID_1600_" class="st4" x1="138" y1="131.1" x2="138" y2="126.7"/>
		<circle id="XMLID_1599_" class="st4" cx="160.2" cy="126.7" r="6.3"/>
		<circle id="XMLID_1598_" class="st4" cx="160.2" cy="126.7" r="4.4"/>
		<line id="XMLID_1597_" class="st4" x1="160.2" y1="131.1" x2="160.2" y2="126.7"/>
		<circle id="XMLID_1596_" class="st4" cx="138" cy="104.7" r="6.3"/>
		<circle id="XMLID_1595_" class="st4" cx="138" cy="104.7" r="4.4"/>
		<line id="XMLID_1594_" class="st4" x1="138" y1="109.1" x2="138" y2="104.7"/>
		<circle id="XMLID_1593_" class="st4" cx="160.2" cy="104.7" r="6.3"/>
		<circle id="XMLID_1592_" class="st4" cx="160.2" cy="104.7" r="4.4"/>
		<line id="XMLID_1591_" class="st4" x1="160.2" y1="109.1" x2="160.2" y2="104.7"/>
		<circle id="XMLID_1590_" class="st4" cx="138" cy="83.8" r="6.3"/>
		<circle id="XMLID_1589_" class="st4" cx="138" cy="83.8" r="4.4"/>
		<line id="XMLID_1588_" class="st4" x1="138" y1="88.2" x2="138" y2="83.8"/>
		<circle id="XMLID_1587_" class="st4" cx="160.2" cy="83.8" r="6.3"/>
		<circle id="XMLID_1586_" class="st4" cx="160.2" cy="83.8" r="4.4"/>
		<line id="XMLID_1585_" class="st4" x1="160.2" y1="88.2" x2="160.2" y2="83.8"/>
		<circle id="XMLID_1584_" class="st4" cx="138" cy="63.5" r="6.3"/>
		<circle id="XMLID_1583_" class="st4" cx="138" cy="63.5" r="4.4"/>
		<line id="XMLID_1582_" class="st4" x1="138" y1="67.9" x2="138" y2="63.5"/>
		<circle id="XMLID_1581_" class="st4" cx="160.2" cy="63.5" r="6.3"/>
		<circle id="XMLID_1580_" class="st4" cx="160.2" cy="63.5" r="4.4"/>
		<line id="XMLID_1579_" class="st4" x1="160.2" y1="67.9" x2="160.2" y2="63.5"/>
		<circle id="XMLID_1578_" class="st4" cx="113" cy="126.7" r="6.3"/>
		<circle id="XMLID_1577_" class="st4" cx="113" cy="126.7" r="4.4"/>
		<line id="XMLID_1576_" class="st4" x1="113" y1="131.1" x2="113" y2="126.7"/>
		<circle id="XMLID_1575_" class="st4" cx="48" cy="126.7" r="6.3"/>
		<circle id="XMLID_1574_" class="st4" cx="48" cy="126.7" r="4.4"/>
		<line id="XMLID_1573_" class="st4" x1="48" y1="131.1" x2="48" y2="126.7"/>
		<path id="XMLID_1572_" class="st5" d="M101.5,133H61c-0.2,0-0.4-0.2-0.4-0.4v-12c0-0.2,0.2-0.4,0.4-0.4h40.5
			c0.2,0,0.4,0.2,0.4,0.4v12C101.9,132.9,101.7,133,101.5,133z"/>
		<path id="XMLID_1571_" class="st5" d="M98.6,128.1H64c-0.2,0-0.4-0.2-0.4-0.4v-5.1c0-0.2,0.2-0.4,0.4-0.4h34.6
			c0.2,0,0.4,0.2,0.4,0.4v5.1C98.9,128,98.8,128.1,98.6,128.1z"/>
		<rect id="XMLID_1569_" x="72.4" y="130.1" class="st6" width="2.2" height="1.5"/>
		<rect id="XMLID_1568_" x="68.4" y="130.1" class="st6" width="2.2" height="1.5"/>
		<rect id="XMLID_1567_" x="64.5" y="130.1" class="st6" width="2.2" height="1.5"/>
		<rect id="XMLID_1565_" x="84.1" y="130.1" class="st6" width="2.2" height="1.5"/>
		<rect id="XMLID_1564_" x="80.2" y="130.1" class="st6" width="2.2" height="1.5"/>
		<rect id="XMLID_1563_" x="76.3" y="130.1" class="st6" width="2.2" height="1.5"/>
		<rect id="XMLID_1561_" x="95.9" y="130.1" class="st6" width="2.2" height="1.5"/>
		<rect id="XMLID_1560_" x="92" y="130.1" class="st6" width="2.2" height="1.5"/>
		<rect id="XMLID_1559_" x="88.1" y="130.1" class="st6" width="2.2" height="1.5"/>
	</g>
	<g id="XMLID_1336_">
		<g id="XMLID_1395_">
			<g id="Knob_140_">
				<circle id="XMLID_1455_" class="st7" cx="137" cy="125.7" r="6.3"/>
				<circle id="XMLID_1454_" class="st8" cx="137" cy="125.7" r="4.4"/>
				<line id="XMLID_1453_" class="st4" x1="137" y1="130.1" x2="137" y2="125.7"/>
			</g>
			<g id="Knob_139_">
				<circle id="XMLID_1452_" class="st7" cx="159.2" cy="125.7" r="6.3"/>
				<circle id="XMLID_1451_" class="st8" cx="159.2" cy="125.7" r="4.4"/>
				<line id="XMLID_1450_" class="st4" x1="159.2" y1="130.1" x2="159.2" y2="125.7"/>
			</g>
			<g id="Knob_138_">
				<circle id="XMLID_1449_" class="st7" cx="137" cy="103.7" r="6.3"/>
				<circle id="XMLID_1448_" class="st8" cx="137" cy="103.7" r="4.4"/>
				<line id="XMLID_1447_" class="st4" x1="137" y1="108.1" x2="137" y2="103.7"/>
			</g>
			<g id="Knob_137_">
				<circle id="XMLID_1446_" class="st7" cx="159.2" cy="103.7" r="6.3"/>
				<circle id="XMLID_1445_" class="st8" cx="159.2" cy="103.7" r="4.4"/>
				<line id="XMLID_1444_" class="st4" x1="159.2" y1="108.1" x2="159.2" y2="103.7"/>
			</g>
			<g id="Knob_136_">
				<circle id="XMLID_1443_" class="st7" cx="137" cy="82.8" r="6.3"/>
				<circle id="XMLID_1442_" class="st8" cx="137" cy="82.8" r="4.4"/>
				<line id="XMLID_1441_" class="st4" x1="137" y1="87.2" x2="137" y2="82.8"/>
			</g>
			<g id="Knob_135_">
				<circle id="XMLID_1440_" class="st7" cx="159.2" cy="82.8" r="6.3"/>
				<circle id="XMLID_1439_" class="st8" cx="159.2" cy="82.8" r="4.4"/>
				<line id="XMLID_1438_" class="st4" x1="159.2" y1="87.2" x2="159.2" y2="82.8"/>
			</g>
			<g id="Knob_134_">
				<circle id="XMLID_1437_" class="st7" cx="137" cy="62.5" r="6.3"/>
				<circle id="XMLID_1436_" class="st8" cx="137" cy="62.5" r="4.4"/>
				<line id="XMLID_1435_" class="st4" x1="137" y1="66.9" x2="137" y2="62.5"/>
			</g>
			<g id="Knob_133_">
				<circle id="XMLID_1434_" class="st7" cx="159.2" cy="62.5" r="6.3"/>
				<circle id="XMLID_1433_" class="st8" cx="159.2" cy="62.5" r="4.4"/>
				<line id="XMLID_1432_" class="st4" x1="159.2" y1="66.9" x2="159.2" y2="62.5"/>
			</g>
			<g id="Knob_132_">
				<circle id="XMLID_1431_" class="st7" cx="112" cy="125.7" r="6.3"/>
				<circle id="XMLID_1430_" class="st8" cx="112" cy="125.7" r="4.4"/>
				<line id="XMLID_1429_" class="st4" x1="112" y1="130.1" x2="112" y2="125.7"/>
			</g>
			<g id="Knob_131_">
				<circle id="XMLID_1428_" class="st7" cx="47" cy="125.7" r="6.3"/>
				<circle id="XMLID_1427_" class="st8" cx="47" cy="125.7" r="4.4"/>
				<line id="XMLID_1426_" class="st4" x1="47" y1="130.1" x2="47" y2="125.7"/>
			</g>
			<g id="XMLID_1396_">
				<path id="XMLID_1425_" class="st9" d="M100.5,132H60c-0.2,0-0.4-0.2-0.4-0.4v-12c0-0.2,0.2-0.4,0.4-0.4h40.5
					c0.2,0,0.4,0.2,0.4,0.4v12C100.9,131.9,100.7,132,100.5,132z"/>
				<path id="XMLID_1424_" class="st10" d="M97.6,127.1H63c-0.2,0-0.4-0.2-0.4-0.4v-5.1c0-0.2,0.2-0.4,0.4-0.4h34.6
					c0.2,0,0.4,0.2,0.4,0.4v5.1C97.9,127,97.8,127.1,97.6,127.1z"/>
				<g id="XMLID_1397_">
					<g id="XMLID_1398_">
						<g id="XMLID_1402_">
							<g id="XMLID_1417_">
								<g id="XMLID_1418_">
									<g id="XMLID_1422_">
										<rect id="XMLID_1423_" x="62.6" y="122.1" class="st11" width="11.8" height="15"/>
									</g>
									<rect id="XMLID_1421_" x="71.4" y="129.1" class="st12" width="2.2" height="1.5"/>
									<rect id="XMLID_1420_" x="67.4" y="129.1" class="st12" width="2.2" height="1.5"/>
									<rect id="XMLID_1419_" x="63.5" y="129.1" class="st12" width="2.2" height="1.5"/>
								</g>
							</g>
							<g id="XMLID_1410_">
								<g id="XMLID_1411_">
									<g id="XMLID_1415_">
										<rect id="XMLID_1416_" x="74.4" y="122.1" class="st11" width="11.8" height="15"/>
									</g>
									<rect id="XMLID_1414_" x="83.1" y="129.1" class="st12" width="2.2" height="1.5"/>
									<rect id="XMLID_1413_" x="79.2" y="129.1" class="st12" width="2.2" height="1.5"/>
									<rect id="XMLID_1412_" x="75.3" y="129.1" class="st12" width="2.2" height="1.5"/>
								</g>
							</g>
							<g id="XMLID_1403_">
								<g id="XMLID_1404_">
									<g id="XMLID_1408_">
										<rect id="XMLID_1409_" x="86.2" y="122.1" class="st11" width="11.8" height="15"/>
									</g>
									<rect id="XMLID_1407_" x="94.9" y="129.1" class="st12" width="2.2" height="1.5"/>
									<rect id="XMLID_1406_" x="91" y="129.1" class="st12" width="2.2" height="1.5"/>
									<rect id="XMLID_1405_" x="87.1" y="129.1" class="st12" width="2.2" height="1.5"/>
								</g>
							</g>
						</g>
					</g>
				</g>
			</g>
		</g>
	</g>
</g>
<g id="Layer_3">
	<g id="XMLID_173_" class="st0">
		<path id="XMLID_175_" class="st13" d="M119.8,111.1H41.1c-0.5,0-0.9-0.4-0.9-0.9V54.6c0-0.5,0.4-0.9,0.9-0.9h78.7
			c0.5,0,0.9,0.4,0.9,0.9v55.5C120.8,110.6,120.4,111.1,119.8,111.1z"/>
	</g>
	<g id="XMLID_114_">
		<g id="XMLID_121_">
			<path id="XMLID_169_" class="st14" d="M118.8,110.1H40.1c-0.5,0-0.9-0.4-0.9-0.9V53.6c0-0.5,0.4-0.9,0.9-0.9h78.7
				c0.5,0,0.9,0.4,0.9,0.9v55.5C119.8,109.6,119.4,110.1,118.8,110.1z"/>
		</g>
	</g>
</g>
<g id="Layer_5">
	<g id="XMLID_104_">
		<defs>
			<path id="XMLID_16_" d="M118.8,110.1H40.1c-0.5,0-0.9-0.4-0.9-0.9V53.6c0-0.5,0.4-0.9,0.9-0.9h78.7c0.5,0,0.9,0.4,0.9,0.9v55.5
				C119.8,109.6,119.4,110.1,118.8,110.1z"/>
		</defs>
		<clipPath id="XMLID_7_">
			<use xlink:href="#XMLID_16_"  style="overflow:visible;"/>
		</clipPath>
		<g id="XMLID_36_" class="st15">
			<polyline id="XMLID_34_" class="st16" points="39.4,100.8 50.9,107.1 63.6,100.8 75.2,107.1 86.8,100.8 98.3,107.1 109.6,100.3 
				119.8,103.7 			"/>
			<polyline id="XMLID_113_" class="st16" points="39.3,107.1 50.8,113.5 63.5,107.1 75.1,113.5 86.7,107.1 98.2,113.5 109.5,106.6 
				119.7,110.1 			"/>
			<polyline id="XMLID_31_" class="st16" points="39.4,93.4 50.9,99.8 63.6,93.4 75.2,99.8 86.8,93.4 98.3,99.8 109.6,92.9 
				119.8,96.4 			"/>
			<polyline id="XMLID_111_" class="st16" points="39.4,85.7 50.9,92 63.6,85.7 75.2,92 86.8,85.7 98.3,92 109.6,85.2 119.8,88.6 
							"/>
			<polyline id="XMLID_110_" class="st16" points="39.4,78.4 50.9,84.8 63.6,78.4 75.2,84.8 86.8,78.4 98.3,84.8 109.6,77.9 
				119.8,81.4 			"/>
			<polyline id="XMLID_30_" class="st16" points="39.4,70.6 50.9,76.9 63.6,70.6 75.2,76.9 86.8,70.6 98.3,76.9 109.6,70.1 
				119.8,73.5 			"/>
			<polyline id="XMLID_21_" class="st16" points="39.4,64.2 50.9,70.6 63.6,64.2 75.2,70.6 86.8,64.2 98.3,70.6 109.6,63.7 
				119.8,67.2 			"/>
			<polyline id="XMLID_107_" class="st16" points="39.4,57.4 50.9,63.7 63.6,57.4 75.2,63.7 86.8,57.4 98.3,63.7 109.6,56.9 
				119.8,60.3 			"/>
			<polyline id="XMLID_106_" class="st16" points="39.3,51.3 50.8,57.6 63.5,51.3 75.1,57.6 86.7,51.3 98.2,57.6 109.5,50.8 
				119.7,54.2 			"/>
		</g>
	</g>
</g>
<g id="Layer_6">
	<g id="XMLID_168_" class="st0">
		<path id="XMLID_170_" class="st16" d="M119.8,111.1H41.1c-0.5,0-0.9-0.4-0.9-0.9V54.6c0-0.5,0.4-0.9,0.9-0.9h78.7
			c0.5,0,0.9,0.4,0.9,0.9v55.5C120.8,110.6,120.4,111.1,119.8,111.1z"/>
	</g>
	<g id="XMLID_112_">
		<g id="XMLID_118_">
			<path id="XMLID_119_" class="st16" d="M118.8,110.1H40.1c-0.5,0-0.9-0.4-0.9-0.9V53.6c0-0.5,0.4-0.9,0.9-0.9h78.7
				c0.5,0,0.9,0.4,0.9,0.9v55.5C119.8,109.6,119.4,110.1,118.8,110.1z"/>
		</g>
	</g>
</g>
</svg>
